<svg xmlns="http://www.w3.org/2000/svg" version="1.1" xmlns:xlink="http://www.w3.org/1999/xlink" xmlns:svgjs="http://svgjs.dev/svgjs" width="1500" height="1500" viewBox="0 0 1500 1500"><rect width="1500" height="1500" fill="#182524"></rect><g transform="matrix(0.6666666666666666,0,0,0.6666666666666666,248.923762025111,211.43643724696352)"><svg viewBox="0 0 229 247" data-background-color="#182524" preserveAspectRatio="xMidYMid meet" height="1617" width="1500" xmlns="http://www.w3.org/2000/svg" xmlns:xlink="http://www.w3.org/1999/xlink"><g id="tight-bounds" transform="matrix(1,0,0,1,0.24658588947374938,-0.09999999999999432)"><svg viewBox="0 0 228.50695561427665 247.2" height="247.2" width="228.50695561427665"><g><svg viewBox="0 0 366.9067137872199 396.9215703057314" height="247.2" width="228.50695561427665"><g><svg viewBox="0 0 366.9067137872199 396.9215703057314" height="396.9215703057314" width="366.9067137872199"><g id="textblocktransform"><svg viewBox="0 0 366.9067137872199 396.9215703057314" height="396.9215703057314" width="366.9067137872199" id="textblock"><g><svg viewBox="0 0 366.9067137872199 245.672304" height="245.672304" width="366.9067137872199"><path d="M366.048 52.692C364.323 27.191 359.407 20.102 359.407 20.102 344.314-6.164 325.478-0.502 308.557 3.272 278.681 3.425 248.927 9.035 219.12 12.044 156.558 12.503 93.461 4.955 31.209 23.57 25.361 29.282-6.067 24.692 1.04 55.956 2.903 68.961 9.699 83.395 9.492 95.329 10.424 97.42 11.717 92.626 12.269 95.635 14.201 103.744 17.358 99.919 19.945 104.713 16.34 117.515 18.927 128.174 21.394 139.343 17.047 142.25 11.476 140.873 8.975 150.513 8.716 157.5 7.319 156.174 5.784 155.868 4.662 155.664 2.403 156.429 2.782 158.622 4.076 166.119-1.478 170.454 2.006 177.798-0.392 185.755 3.662 192.64 3.11 201.259 3.041 202.993 3.42 204.472 4.024 204.88 6.698 207.073 2.8 211.357 3.213 215.998 30.64 247.721 60.394 225.791 88.493 240.377 95.789 230.177 90.304 243.998 93.219 241.856 95.496 239.357 97.152 249.71 99.722 243.845 100.119 242.162 99.515 238.184 100.929 238.949 101.671 239.357 102.327 239.255 102.43 236.909 102.585 233.39 101.223 235.583 100.86 233.747 104.776 224.465 103.81 246.548 107.484 245.63 107.312 242.927 106.242 239.051 108.433 239.561 110.606 235.685 110.675 232.472 112.607 241.193 112.676 243.08 113.021 244.406 113.573 245.324 119.61 235.838 125.613 248.69 131.943 244.406 135.824 239.714 139.55 246.956 143.483 245.171 144.863 243.743 146.26 241.193 147.588 245.477 163.854 246.395 181.189 242.57 196.61 245.63 237.818 239.918 281.855 247.976 325.305 240.428 335.551 237.521 346.194 233.39 356.181 230.075 356.181 230.075 364.271 220.997 364.271 180.196S365.996 144.495 366.255 112.007C366.513 79.519 367.721 78.193 365.996 52.692Z" opacity="1" fill="#e2f1e6" data-fill-palette-color="tertiary"></path><g transform="matrix(1,0,0,1,55.76831999999999,26.068561146666667)"><svg width="255.37007378721995" viewBox="-4.6 -28.85 47.7 36.15" height="193.53518170666666" data-palette-color="#182524"><path d="M29.5-10.95L29.5-10.95 17.1-12.6Q9.5 4.65 2.35 6.85L2.35 6.85Q1.05 7.3 0.05 7.3L0.05 7.3Q-3.7 7.3-4.55 4.15L-4.55 4.15Q-4.6 3.95-4.6 3.73-4.6 3.5-4.53 3.18-4.45 2.85-4.2 2.95-3.95 3.05-3.7 3.9L-3.7 3.9Q-3.25 5.35-1.8 5.75L-1.8 5.75Q-0.7 5.95 0.13 5.95 0.95 5.95 1.55 5.75L1.55 5.75Q8.85 3.45 15.2-12.85L15.2-12.85 12.55-13Q11.85-13.05 11.25-13.05L11.25-13.05Q4.9-13.05 3.45-8.95L3.45-8.95Q3.2-8.4 3.2-7.9 3.2-7.4 3.5-6.9 3.8-6.4 3.33-6.28 2.85-6.15 2.55-6.6L2.55-6.6Q2-7.6 2-8.45L2-8.45Q2-11.5 3.13-12.98 4.25-14.45 5.75-14.9L5.75-14.9Q7.55-15.4 9.75-15.4L9.75-15.4 12.8-15.1Q14.4-14.95 15.85-14.65L15.85-14.65Q17.05-17.85 18.75-23.25L18.75-23.25Q16.1-20.9 12.25-20.5L12.25-20.5Q11.75-20.45 11.73-20.85 11.7-21.25 12.3-21.35L12.3-21.35Q14.45-21.55 16.73-23.55 19-25.55 20.2-28.25L20.2-28.25Q20.3-28.85 21.85-28.85 23.4-28.85 23.35-28.25L23.35-28.25Q23.05-27.5 21.13-22.48 19.2-17.45 17.8-14.25L17.8-14.25Q19.1-14 21.6-13.4L21.6-13.4Q26.7-12.25 29.85-11.9L29.85-11.9Q32.75-18.05 33.48-19.78 34.2-21.5 34.2-21.95 34.2-22.4 34.05-22.65L34.05-22.65Q34.2-24.05 36.23-26.33 38.25-28.6 40.05-28.6L40.05-28.6Q40.85-28.6 41.98-28.03 43.1-27.45 43.1-26.55L43.1-26.55Q43.1-26.35 42.85-26.5 42.6-26.65 42.5-26.65L42.5-26.65Q41.25-26.65 39.6-24.88 37.95-23.1 36.35-20.3L36.35-20.3Q33.9-15.95 32-11.7L32-11.7Q36.3-11.7 37.75-13.5L37.75-13.5Q38-13.95 38.25-13.63 38.5-13.3 38.08-12.68 37.65-12.05 36.2-11.45 34.75-10.85 31.6-10.85L31.6-10.85Q29.25-5.3 29.25-2.15L29.25-2.15Q29.25 0.3 30.68 0.3 32.1 0.3 34.93-1.9 37.75-4.1 40.25-7.45L40.25-7.45Q40.4-7.65 40.7-7.53 41-7.4 40.88-7.08 40.75-6.75 40.1-5.8L40.1-5.8Q38-2.95 34.95-0.5L34.95-0.5Q32.7 1.25 30.05 1.25L30.05 1.25Q28.7 1.25 27.98 0.45 27.25-0.35 27.18-1.05 27.1-1.75 27.1-2.35 27.1-2.95 27.3-4.2L27.3-4.2Q27.8-7.4 29.5-10.95Z" opacity="1" transform="matrix(1,0,0,1,0,0)" fill="#182524" class="wordmark-text-0" data-fill-palette-color="quaternary" id="text-0"></path></svg></g></svg></g><g transform="matrix(1,0,0,1,44.028805654466396,291.361315556583)"><svg viewBox="0 0 278.84910247828714 105.56025474914833" height="105.56025474914833" width="278.84910247828714"><g transform="matrix(1,0,0,1,0,0)"><svg width="278.84910247828714" viewBox="1.1 -36.5 98.39 37.25" height="105.56025474914833" data-palette-color="#ffffff"><path d="M8.15-25.85L8.15-25.85 8.15-15.55Q9.85-18.5 12.5-20.75 15.15-23 18-24.25L18-24.25Q22.15-22.4 22.15-16.4L22.15-16.4Q22.15-16.15 22.15-15.95L22.15-15.95 21.9-5.5Q21.9-5.15 21.9-4.8L21.9-4.8Q21.9-2.35 22.58-1.07 23.25 0.2 25.7 0.2L25.7 0.2Q27 0.2 27.65-0.2L27.65-0.2 27.95 0.15Q27.2 0.75 25.55 0.75L25.55 0.75Q22.85 0.75 22.05-0.68 21.25-2.1 21.25-4.85L21.25-4.85Q21.25-5.15 21.25-5.5L21.25-5.5 21.5-15.95Q21.5-16.25 21.5-16.55L21.5-16.55Q21.5-21.85 17.95-23.65L17.95-23.65Q15.05-22.35 12.43-19.93 9.8-17.5 8.15-14.6L8.15-14.6 8.15-3.35Q8.15 0.05 12.45 0.05L12.45 0.05Q13.35 0.05 14.45-0.2L14.45-0.2 14.55 0.25Q13.65 0.6 12.15 0.6 10.65 0.6 9.35-0.05 8.05-0.7 7.8-2L7.8-2Q7.55-0.7 6.28-0.05 5 0.6 3.5 0.6 2 0.6 1.1 0.25L1.1 0.25 1.2-0.2Q2.3 0.05 3.2 0.05L3.2 0.05Q7.5 0.05 7.5-3.35L7.5-3.35 7.5-25.85Q7.5-30 8.08-32.08 8.65-34.15 9.73-35.13 10.8-36.1 12.5-36.5L12.5-36.5 12.6-36Q9.5-35.1 8.75-32.1L8.75-32.1Q8.15-29.7 8.15-25.85ZM38.75 0.75Q35.45-0.45 33.55-3.55 31.65-6.65 31.65-10.45 31.65-14.25 33.3-18.03 34.95-21.8 37.8-24.25L37.8-24.25Q46.45-24.25 46.45-18.35L46.45-18.35Q46.45-16.45 45.75-14.6L45.75-14.6Q47.15-14.65 49.15-14.65L49.15-14.65 49.15-14.15Q48.65-14.15 48.2-14.15L48.2-14.15Q41.1-14.15 32.5-12.8L32.5-12.8Q32.35-11.5 32.35-10.35L32.35-10.35Q32.35-6.85 34.05-3.98 35.75-1.1 38.85 0.05L38.85 0.05Q40.7-0.7 42.6-2.13 44.5-3.55 45.7-5.15L45.7-5.15 46.15-4.85Q44.9-3.2 42.82-1.63 40.75-0.05 38.75 0.75L38.75 0.75ZM45.8-18.35L45.8-18.35Q45.8-23.7 38-23.7L38-23.7Q33.75-20.05 32.6-13.4L32.6-13.4Q38.05-14.3 45.2-14.6L45.2-14.6Q45.8-16.55 45.8-18.35ZM55.85-25.85L55.85-25.85 55.85-15.8Q57.55-18.65 60.32-20.95 63.1-23.25 65.55-24.25L65.55-24.25Q68.2-22.85 69.5-19.95 70.8-17.05 70.8-13.2 70.8-9.35 69.02-5.5 67.25-1.65 63.95 0.75L63.95 0.75Q58.85 0.75 55.2-0.95L55.2-0.95 55.2-25.85Q55.2-30 55.77-32.08 56.35-34.15 57.42-35.13 58.5-36.1 60.2-36.5L60.2-36.5 60.3-36Q57.2-35.1 56.45-32.1L56.45-32.1Q55.85-29.7 55.85-25.85ZM63.8 0.2Q66.84-2.2 68.47-5.85 70.09-9.5 70.09-13.13 70.09-16.75 68.95-19.53 67.8-22.3 65.45-23.55L65.45-23.55Q63.15-22.65 60.22-20.13 57.3-17.6 55.85-14.8L55.85-14.8 55.85-1.3Q59.1 0.2 63.8 0.2L63.8 0.2ZM92.94-20.9L92.94-20.9 92.94-6.6Q92.94 0.05 97.24 0.05L97.24 0.05Q98.54 0.05 99.19-0.35L99.19-0.35 99.49 0Q98.74 0.6 97.09 0.6L97.09 0.6Q92.29 0.6 92.29-6.6L92.29-6.6 92.29-7.7Q90.59-4.85 87.82-2.55 85.04-0.25 82.59 0.75L82.59 0.75Q79.94-0.65 78.64-3.55 77.34-6.45 77.34-10.3 77.34-14.15 79.12-18 80.89-21.85 84.19-24.25L84.19-24.25Q88.64-24.25 92.34-22.15L92.34-22.15Q92.59-24.65 93.99-26.4L93.99-26.4 94.44-26.15Q92.94-23.75 92.94-20.9ZM84.34-23.7Q81.29-21.3 79.67-17.65 78.04-14 78.04-10.38 78.04-6.75 79.19-3.98 80.34-1.2 82.69 0.05L82.69 0.05Q84.99-0.85 87.92-3.38 90.84-5.9 92.29-8.7L92.29-8.7 92.29-21.55Q88.59-23.7 84.34-23.7L84.34-23.7Z" opacity="1" transform="matrix(1,0,0,1,0,0)" fill="#ffffff" class="slogan-text-1" data-fill-palette-color="secondary" id="text-1"></path></svg></g></svg></g></svg></g></svg></g><g></g></svg></g><defs></defs></svg><rect width="228.50695561427665" height="247.2" fill="none" stroke="none" visibility="hidden"></rect></g></svg></g></svg>